<svg width="48" height="48" viewBox="0 0 48 48" fill="none" xmlns="http://www.w3.org/2000/svg">
<path d="M16.1759 28.2094C15.1025 28.2094 14.342 29.2575 14.6749 30.278L17.3354 38.4319C17.6406 39.3672 18.5127 40 19.4965 40V40C20.4706 40 21.3363 39.3795 21.6493 38.4571L24.4735 30.1323C24.7937 29.1885 24.092 28.2094 23.0954 28.2094V28.2094C22.4468 28.2094 21.8766 28.6387 21.6953 29.2614C20.8024 32.3283 19.8937 35.3606 19.5975 37.0988C19.5965 37.105 19.5911 37.1093 19.5849 37.1093V37.1093C19.5785 37.1093 19.5732 37.1051 19.5723 37.0988C19.3728 35.8215 18.6272 32.8744 17.7002 29.381C17.5168 28.69 16.8908 28.2094 16.1759 28.2094V28.2094Z" fill="#1B344B"/>
<path d="M30.4043 40C31.2856 40 32 39.2856 32 38.4043V26.5231C32 25.6819 31.3181 25 30.4769 25V25C30.0289 25 29.6109 25.2061 29.276 25.5037C28.7038 26.0124 27.9783 26.4467 27.2071 26.7377C26.6408 26.9514 26.2075 27.4619 26.2075 28.0673V28.0673C26.2075 28.8149 26.8527 29.3942 27.5783 29.2139C28.0406 29.0991 28.4912 28.9555 28.8087 28.8012V38.4043C28.8087 39.2856 29.5231 40 30.4043 40V40Z" fill="#1B344B"/>
<path fill-rule="evenodd" clip-rule="evenodd" d="M9 14.7209C9 13.913 9.32584 13.1393 9.90378 12.5748L21.9038 0.853871C23.0694 -0.284624 24.9306 -0.284624 26.0962 0.853871L38.0962 12.5748C38.6742 13.1393 39 13.913 39 14.7209V45C39 46.6569 37.6569 48 36 48H12C10.3431 48 9 46.6569 9 45V14.7209ZM12 14.7209L24 3L36 14.7209V45H12V14.7209Z" fill="#1B344B"/>
<path fill-rule="evenodd" clip-rule="evenodd" d="M24 13.5C23.1716 13.5 22.5 14.1716 22.5 15C22.5 15.8284 23.1716 16.5 24 16.5C24.8284 16.5 25.5 15.8284 25.5 15C25.5 14.1716 24.8284 13.5 24 13.5ZM19.5 15C19.5 12.5147 21.5147 10.5 24 10.5C26.4853 10.5 28.5 12.5147 28.5 15C28.5 17.4853 26.4853 19.5 24 19.5C21.5147 19.5 19.5 17.4853 19.5 15Z" fill="#1B344B"/>
</svg>
